<?xml version="1.0" encoding="utf-8"?>
<!-- Generator: Adobe Illustrator 16.0.0, SVG Export Plug-In . SVG Version: 6.00 Build 0)  -->
<!DOCTYPE svg PUBLIC "-//W3C//DTD SVG 1.1//EN" "http://www.w3.org/Graphics/SVG/1.1/DTD/svg11.dtd">
<svg version="1.1" id="Calque_1" xmlns="http://www.w3.org/2000/svg" xmlns:xlink="http://www.w3.org/1999/xlink" x="0px" y="0px"
	 width="28px" height="28px" viewBox="0 0 28 28" enable-background="new 0 0 28 28" xml:space="preserve">
<circle fill="#13AEE5" cx="14" cy="14" r="13.68"/>
<g id="qH17be_20_">
	<g>
		<path fill="#FFFFFF" d="M16.106,8.144c0.334,0,0.668,0,1.002,0c0.52,0.285,1.036,0.573,1.562,0.847
			c0.086,0.045,0.223,0.047,0.317,0.015c0.523-0.176,1.046-0.369,1.583-0.561c-0.166,0.601-0.573,1.033-0.989,1.517
			c0.447-0.123,0.896-0.247,1.421-0.392c-0.197,0.247-0.329,0.437-0.486,0.602c-0.24,0.249-0.506,0.472-0.745,0.722
			c-0.097,0.101-0.2,0.236-0.216,0.364c-0.062,0.533-0.059,1.076-0.142,1.605c-0.507,3.242-2.951,5.913-6.128,6.694
			c-0.564,0.139-1.148,0.2-1.726,0.298c-0.257,0-0.514,0-0.771,0c-0.082-0.023-0.164-0.06-0.247-0.064
			c-1.195-0.085-2.315-0.419-3.367-0.989c-0.14-0.075-0.274-0.158-0.479-0.275c2.229-0.13,3.615-0.548,4.146-1.24
			c-1.243-0.18-2.124-0.812-2.587-2.059c0.401,0,0.75,0,1.1,0c-1.302-0.563-2.064-1.475-2.133-2.932
			c0.42,0.118,0.793,0.223,1.246,0.351c-1.316-1.521-1.582-2.925-0.791-3.929c1.579,1.827,3.55,2.862,6.006,3.035
			c-0.16-1.15,0.074-2.137,0.943-2.842C15.051,8.57,15.61,8.395,16.106,8.144z"/>
	</g>
</g>
</svg>
