<?xml version="1.0" encoding="utf-8"?>
<!-- Generator: Adobe Illustrator 16.0.0, SVG Export Plug-In . SVG Version: 6.00 Build 0)  -->
<!DOCTYPE svg PUBLIC "-//W3C//DTD SVG 1.1//EN" "http://www.w3.org/Graphics/SVG/1.1/DTD/svg11.dtd">
<svg version="1.1" id="Calque_1" xmlns="http://www.w3.org/2000/svg" xmlns:xlink="http://www.w3.org/1999/xlink" x="0px" y="0px"
	 width="28px" height="28px" viewBox="0 0 28 28" enable-background="new 0 0 28 28" xml:space="preserve">
<circle fill="#3D5E96" cx="14" cy="14" r="13.68"/>
<g id="_x39_forYL_3_">
	<g>
		<path fill="#FFFFFF" d="M10.705,11.595c0.487,0,0.957,0,1.459,0c0-0.463-0.009-0.897,0.002-1.332
			c0.012-0.426-0.002-0.862,0.081-1.276c0.208-1.037,0.919-1.623,1.921-1.745c0.971-0.119,1.96-0.09,2.941-0.113
			c0.057-0.001,0.168,0.111,0.169,0.172c0.012,0.701,0.004,1.403,0.01,2.105C17.291,9.573,17.205,9.6,17.068,9.6
			c-0.464-0.002-0.929-0.003-1.395,0c-0.407,0.004-0.569,0.156-0.574,0.556c-0.007,0.464-0.001,0.928-0.001,1.43
			c0.728,0,1.441,0,2.198,0c-0.026,0.344-0.044,0.648-0.069,0.953c-0.034,0.407-0.079,0.814-0.11,1.223
			c-0.014,0.187-0.119,0.216-0.275,0.215c-0.564-0.004-1.13-0.001-1.744-0.001c0,0.123,0,0.227,0,0.331
			c0,2.077-0.004,4.155,0.006,6.231c0.001,0.269-0.083,0.34-0.341,0.335c-0.765-0.015-1.531-0.014-2.295,0
			c-0.241,0.004-0.308-0.068-0.308-0.309c0.01-2.068,0.006-4.137,0.006-6.205c0-0.109,0-0.217,0-0.365c-0.489,0-0.966,0-1.459,0
			C10.705,13.184,10.705,12.415,10.705,11.595z"/>
	</g>
</g>
</svg>
