<?xml version="1.0" encoding="UTF-8" standalone="no"?>
<svg width="41px" height="40px" viewBox="0 0 41 40" version="1.1" xmlns="http://www.w3.org/2000/svg" xmlns:xlink="http://www.w3.org/1999/xlink" xmlns:sketch="http://www.bohemiancoding.com/sketch/ns">
    <!-- Generator: Sketch 3.2 (9961) - http://www.bohemiancoding.com/sketch -->
    <title>Oval 38 + Imported Layers</title>
    <desc>Created with Sketch.</desc>
    <defs></defs>
    <g id="v2" stroke="none" stroke-width="1" fill="none" fill-rule="evenodd" sketch:type="MSPage">
        <g id="home" sketch:type="MSArtboardGroup" transform="translate(-446.000000, -3288.000000)">
            <g id="Oval-38-+-Imported-Layers" sketch:type="MSLayerGroup" transform="translate(446.250000, 3288.300781)">
                <ellipse id="Oval-38" fill="rgb(38,43,64)" sketch:type="MSShapeGroup" cx="20" cy="19.8930921" rx="20" ry="19.6491228"></ellipse>
                <path d="M11.9342857,22.8594079 L20.9521429,22.8594079 L20.9521429,21.4558991 L11.9342857,21.4558991 L11.9342857,22.8594079 Z M11.9792857,17.5527412 L16.3985714,17.5527412 L16.3985714,13.561864 L11.9792857,13.561864 L11.9792857,17.5527412 Z M11.9342857,20.2425658 L20.9521429,20.2425658 L20.9521429,18.839057 L11.9342857,18.839057 L11.9342857,20.2425658 Z M18.0057143,17.5527412 L20.9521429,17.5527412 L20.9521429,16.1492325 L18.0057143,16.1492325 L18.0057143,17.5527412 Z M24.4042857,13.4881798 L24.4042857,10.7702851 L8.57142857,10.7702851 L8.57142857,25.6516886 L8.60428571,25.6516886 C8.77071429,27.1281798 10.0321429,28.2832675 11.5771429,28.2832675 L25.9821429,28.2832675 C27.6392857,28.2832675 28.9878571,26.959057 28.9878571,25.3302851 L28.9878571,13.4881798 L24.4042857,13.4881798 L24.4042857,13.4881798 Z M10,12.1737939 L22.9757143,12.1737939 L22.9757143,24.2488816 L10,24.2488816 L10,12.1737939 Z M11.5771429,26.8804605 C10.82,26.8804605 10.1864286,26.3527412 10.035,25.6516886 L23.0085714,25.6516886 C23.0592857,26.0987061 23.2035714,26.5155482 23.4342857,26.8804605 L11.5771429,26.8804605 L11.5771429,26.8804605 Z M27.5592857,25.3302851 C27.5592857,26.1843202 26.8521429,26.8804605 25.9821429,26.8804605 C25.1121429,26.8804605 24.4042857,26.1843202 24.4042857,25.3302851 L24.4042857,14.8916886 L27.5592857,14.8916886 L27.5592857,25.3302851 L27.5592857,25.3302851 Z" id="Imported-Layers" fill="#FFFFFF" sketch:type="MSShapeGroup"></path>
            </g>
        </g>
    </g>
</svg>