<?xml version="1.0" encoding="utf-8"?>
<!-- Generator: Adobe Illustrator 15.1.0, SVG Export Plug-In . SVG Version: 6.00 Build 0)  -->
<!DOCTYPE svg PUBLIC "-//W3C//DTD SVG 1.1//EN" "http://www.w3.org/Graphics/SVG/1.1/DTD/svg11.dtd">
<svg version="1.1" id="Layer_1" xmlns="http://www.w3.org/2000/svg" xmlns:xlink="http://www.w3.org/1999/xlink" x="0px" y="0px"
	 width="60px" height="60px" viewBox="4 4 60 60" enable-background="new 4 4 60 60" xml:space="preserve">
<path fill="#FC6400" d="M45.164,46.268h5.104c0-14.633-11.904-26.543-26.535-26.543v5.09C35.547,24.812,45.164,34.439,45.164,46.268
	z M27.266,46.277c1.957,0,3.538-1.572,3.538-3.521c0-1.938-1.581-3.527-3.538-3.527c-1.949,0-3.533,1.59-3.533,3.527
	C23.732,44.705,25.316,46.277,27.266,46.277z M36.143,46.27L36.143,46.27h5.11c0-9.664-7.862-17.523-17.521-17.523v5.088
	c3.313,0,6.429,1.295,8.774,3.645C34.85,39.816,36.143,42.945,36.143,46.27z M34,64C17.432,64,4,50.568,4,34C4,17.431,17.432,4,34,4
	c16.568,0,30,13.431,30,30C64,50.568,50.568,64,34,64z"/>
</svg>
